<svg xmlns="http://www.w3.org/2000/svg" viewBox="0 0 64 64">
  <path d="M32 12c11 0 20 8.5 20 19 0 10.5-9 19-20 19-2.6 0-5.1-.5-7.4-1.4L14 52l3.8-9.2C15.4 39.6 14 35.4 14 31c0-10.5 9-19 20-19Z" fill="none" stroke="currentColor" stroke-opacity=".45" stroke-width="4" stroke-linejoin="round"/>
  <path d="M25 24c1.5 0 3.8 5.1 3.8 6.3 0 1.1-1.4 2.1-1.4 2.8 0 .8 3 4.2 4.9 4.2.8 0 1.9-1.5 3-1.5 1.2 0 5.7 2 5.7 3.6 0 2.1-2.8 4.2-5.8 4.2-6.1 0-14.2-7.4-14.2-14.4 0-2.7 2.1-5.2 4-5.2Z" fill="none" stroke="var(--icon-color-accent, #ff8700)" stroke-linecap="round" stroke-linejoin="round" stroke-width="3.2"/>
</svg>
