<svg xmlns="http://www.w3.org/2000/svg" viewBox="0 0 14 14">
    <g fill="none">
        <g opacity="0.2">
            <path fill="currentColor"
              d="M0 1.5A1.5 1.5 0 0 1 1.5 0h11A1.5 1.5 0 0 1 14 1.5v11a1.5 1.5 0 0 1-1.5 1.5h-11A1.5 1.5 0 0 1 0 12.5z"/>
        </g>
        <path fill="var(--icon-color-accent, #ff8700)" fill-rule="evenodd"
              d="M1.5 0h11A1.5 1.5 0 0 1 14 1.5V4H7.75v3.806H14v1.5H7.75V14h-1.5V9.306H0v-1.5h6.25V4H0V1.5A1.5 1.5 0 0 1 1.5 0"
              clip-rule="evenodd"/>
    </g>
</svg>