<svg xmlns="http://www.w3.org/2000/svg" viewBox="0 0 14 14">
<g fill="none">
    <g opacity="0.3">
        <path fill="currentColor" d="M2 4V2h3v2zm7 0V2h3v2z" />
        <path fill="currentColor" d="M.5 5v7.5a1 1 0 0 0 1 1h11a1 1 0 0 0 1-1V5a1 1 0 0 0-1-1h-11a1 1 0 0 0-1 1" />
    </g>
    <path stroke="var(--icon-color-accent, #ff8700)" stroke-linecap="round" stroke-linejoin="round" d="M.5 5v7.5a1 1 0 0 0 1 1h11a1 1 0 0 0 1-1V5a1 1 0 0 0-1-1h-11a1 1 0 0 0-1 1M2 4V2h3v2m4 0V2h3v2" stroke-width="1" />
    <path stroke="var(--icon-color-accent, #ff8700)" stroke-linecap="round" stroke-linejoin="round" d="m7.5 6l-2 2.5h3l-2 3" stroke-width="1" />
</g>
</svg>