<svg xmlns="http://www.w3.org/2000/svg" viewBox="0 0 1200 1200" fill="none">
  <g stroke="#c87444" stroke-width="5.5" stroke-linecap="round" stroke-linejoin="round">
    <path d="M600 934c-166-130-392-289-392-488 0-118 86-202 198-202 80 0 147 39 194 113 47-74 114-113 194-113 112 0 198 84 198 202 0 199-226 358-392 488Z"/>
    <path d="M352 628c73 50 159 78 248 81"/>
    <path d="M848 628c-73 50-159 78-248 81"/>
    <path d="M244 964c96-52 194-78 294-78 100 0 198 26 294 78"/>
    <path d="M150 812c153-95 300-135 450-135 150 0 297 40 450 135"/>
    <circle cx="600" cy="600" r="488"/>
  </g>
</svg>
