<svg xmlns="http://www.w3.org/2000/svg" viewBox="0 0 1200 1200" fill="none">
  <g stroke="#c87444" stroke-width="5" stroke-linecap="round" stroke-linejoin="round">
    <circle cx="600" cy="600" r="420"/>
    <circle cx="600" cy="600" r="300"/>
    <path d="m600 220 62 154 166 14-126 108 39 163-141-89-141 89 39-163-126-108 166-14 62-154Z"/>
    <path d="M312 902c94-85 188-118 288-118s194 33 288 118"/>
    <path d="M344 286c85 76 170 107 256 107s171-31 256-107"/>
    <path d="M600 86v118"/>
    <path d="M600 996v118"/>
    <path d="M86 600h118"/>
    <path d="M996 600h118"/>
  </g>
</svg>
