<svg xmlns="http://www.w3.org/2000/svg" viewBox="0 0 64 64">
  <path d="M10 14h30a6 6 0 0 1 6 6v16a6 6 0 0 1-6 6H22l-8 7v-7h-4a6 6 0 0 1-6-6V20a6 6 0 0 1 6-6Z" fill="none" stroke="currentColor" stroke-opacity=".45" stroke-linejoin="round" stroke-width="4"/>
  <path d="M28 42h20a6 6 0 0 0 6-6v-8" fill="none" stroke="currentColor" stroke-opacity=".45" stroke-linecap="round" stroke-width="4"/>
  <g fill="none" stroke="var(--icon-color-accent, #ff8700)" stroke-linecap="round" stroke-linejoin="round" stroke-width="4">
    <path d="M16 25h6v6h-6zM28 25h6v6h-6z"/>
    <path d="M16 36h16"/>
  </g>
</svg>
